<svg xmlns="http://www.w3.org/2000/svg" xmlns:xlink="http://www.w3.org/1999/xlink" width="80" height="75" viewBox="0 0 80 75">
  <defs>
    <filter id="Polygon_53" x="0" y="0" width="80" height="75" filterUnits="userSpaceOnUse">
      <feOffset dy="10" input="SourceAlpha"/>
      <feGaussianBlur stdDeviation="3" result="blur"/>
      <feFlood flood-opacity="0.859"/>
      <feComposite operator="in" in2="blur"/>
      <feComposite in="SourceGraphic"/>
    </filter>
  </defs>
  <g transform="matrix(1, 0, 0, 1, 0, 0)" filter="url(#Polygon_53)">
    <g id="Polygon_53-2" data-name="Polygon 53" transform="translate(71 56) rotate(180)" fill="none" stroke-linecap="round" stroke-linejoin="round">
      <path d="M24,12.644a8,8,0,0,1,14,0L55.427,44.125a8,8,0,0,1-7,11.875H13.573a8,8,0,0,1-7-11.875Z" stroke="none"/>
      <path d="M 30.99999237060547 13.51813888549805 C 30.46832084655762 13.51813888549805 29.14827346801758 13.66888046264648 28.37532043457031 15.06520080566406 L 10.9478645324707 46.54704666137695 C 10.19859313964844 47.90056610107422 10.72639083862305 49.07935333251953 10.98808670043945 49.52333831787109 C 11.24977874755859 49.96732711791992 12.02548599243164 51 13.57254409790039 51 L 48.42746353149414 51 C 49.97452163696289 51 50.75022888183594 49.96732711791992 51.01192092895508 49.52333831787109 C 51.27361679077148 49.07936477661133 51.8014030456543 47.90056610107422 51.05213165283203 46.54704666137695 L 33.62467193603516 15.06520080566406 C 32.85172271728516 13.66888046264648 31.53166198730469 13.51813888549805 30.99999237060547 13.51813888549805 M 30.99999809265137 8.518146514892578 C 33.73832702636719 8.518146514892578 36.47665023803711 9.893306732177734 37.9991455078125 12.64362335205078 L 55.42660522460938 44.12546920776367 C 58.37827301025391 49.45751571655273 54.52196884155273 56 48.42746353149414 56 L 13.57254409790039 56 C 7.478038787841797 56 3.621734619140625 49.45751571655273 6.573390960693359 44.12546920776367 L 24.00085067749023 12.64362335205078 C 25.52334594726563 9.893306732177734 28.26167297363281 8.518146514892578 30.99999809265137 8.518146514892578 Z" stroke="none" fill="#fff"/>
    </g>
  </g>
</svg>
