<?xml version="1.0" encoding="UTF-8" standalone="no"?>
<svg
   xmlns:dc="http://purl.org/dc/elements/1.1/"
   xmlns:cc="http://creativecommons.org/ns#"
   xmlns:rdf="http://www.w3.org/1999/02/22-rdf-syntax-ns#"
   xmlns:svg="http://www.w3.org/2000/svg"
   xmlns="http://www.w3.org/2000/svg"
   xmlns:sodipodi="http://sodipodi.sourceforge.net/DTD/sodipodi-0.dtd"
   xmlns:inkscape="http://www.inkscape.org/namespaces/inkscape"
   width="210mm"
   height="297mm"
   viewBox="0 0 210 297"
   version="1.1"
   id="svg8"
   inkscape:version="1.0.1 (3bc2e813f5, 2020-09-07)"
   sodipodi:docname="ustawiaj.svg"
   inkscape:export-filename="C:\Users\Julia\Desktop\ustawiaj powiadomienia.png"
   inkscape:export-xdpi="96"
   inkscape:export-ydpi="96">
  <defs
     id="defs2">
    <inkscape:path-effect
       effect="bspline"
       id="path-effect1197"
       is_visible="true"
       lpeversion="1"
       weight="33.333333"
       steps="2"
       helper_size="0"
       apply_no_weight="true"
       apply_with_weight="true"
       only_selected="false" />
    <inkscape:path-effect
       effect="skeletal"
       id="path-effect1183"
       is_visible="true"
       lpeversion="1"
       pattern="M 0,5 C 0,2.24 2.24,0 5,0 7.76,0 10,2.24 10,5 10,7.76 7.76,10 5,10 2.24,10 0,7.76 0,5 Z"
       copytype="single_stretched"
       prop_scale="1"
       scale_y_rel="false"
       spacing="0"
       normal_offset="0"
       tang_offset="0"
       prop_units="false"
       vertical_pattern="false"
       hide_knot="false"
       fuse_tolerance="0" />
    <inkscape:path-effect
       effect="bspline"
       id="path-effect1181"
       is_visible="true"
       lpeversion="1"
       weight="33.333333"
       steps="2"
       helper_size="0"
       apply_no_weight="true"
       apply_with_weight="true"
       only_selected="false" />
    <inkscape:path-effect
       effect="bspline"
       id="path-effect1177"
       is_visible="true"
       lpeversion="1"
       weight="33.333333"
       steps="2"
       helper_size="0"
       apply_no_weight="true"
       apply_with_weight="true"
       only_selected="false" />
    <filter
       inkscape:collect="always"
       style="color-interpolation-filters:sRGB"
       id="filter1616"
       x="-0.04332"
       width="1.08664"
       y="-0.04332"
       height="1.08664">
      <feGaussianBlur
         inkscape:collect="always"
         stdDeviation="0.60525497"
         id="feGaussianBlur1618" />
    </filter>
    <filter
       inkscape:collect="always"
       style="color-interpolation-filters:sRGB"
       id="filter1716"
       x="-0.097641269"
       width="1.1952825"
       y="-0.013276073"
       height="1.0265521">
      <feGaussianBlur
         inkscape:collect="always"
         stdDeviation="0.15403715"
         id="feGaussianBlur1718" />
    </filter>
  </defs>
  <sodipodi:namedview
     id="base"
     pagecolor="#ffffff"
     bordercolor="#666666"
     borderopacity="1.0"
     inkscape:pageopacity="0.0"
     inkscape:pageshadow="2"
     inkscape:zoom="0.35355339"
     inkscape:cx="-419.6"
     inkscape:cy="398.56419"
     inkscape:document-units="mm"
     inkscape:current-layer="layer1"
     inkscape:document-rotation="0"
     showgrid="false"
     inkscape:pagecheckerboard="true"
     inkscape:window-width="1366"
     inkscape:window-height="705"
     inkscape:window-x="-8"
     inkscape:window-y="-8"
     inkscape:window-maximized="1" />
  <metadata
     id="metadata5">
    <rdf:RDF>
      <cc:Work
         rdf:about="">
        <dc:format>image/svg+xml</dc:format>
        <dc:type
           rdf:resource="http://purl.org/dc/dcmitype/StillImage" />
        <dc:title />
      </cc:Work>
    </rdf:RDF>
  </metadata>
  <g
     inkscape:label="Warstwa 1"
     inkscape:groupmode="layer"
     id="layer1">
    <g
       id="g41">
      <g
         id="g1732"
         transform="matrix(1.3445524,0,0,1.3445524,-8.5357741,-10.768036)">
        <g
           id="g1447"
           transform="translate(-22.454259,-10.58656)">
          <path
             id="path1227"
             style="fill:none;fill-opacity:1;stroke:#7c0e41;stroke-width:1.419;stroke-linecap:round;stroke-linejoin:round;stroke-miterlimit:4;stroke-dasharray:none;stroke-opacity:1"
             d="m 119.74508,70.514959 c 0,4.649679 -4.88481,8.41899 -10.25778,8.41899 -5.37296,0 -9.19944,-3.769311 -9.19944,-8.41899 0,-4.649679 4.35565,-8.41899 9.72861,-8.41899 5.37296,0 9.72861,3.769311 9.72861,8.41899 z"
             sodipodi:nodetypes="sssss" />
          <path
             id="path1213"
             style="fill:#b50060;fill-opacity:1;stroke:#7c0e41;stroke-width:2.119;stroke-linecap:round;stroke-linejoin:round;stroke-miterlimit:4;stroke-dasharray:none;stroke-opacity:1"
             d="m 144.43244,134.32967 c 26.19241,32.62297 -34.79849,37.41773 -34.79849,37.41773 0,0 -65.481028,-3.67223 -36.295197,-37.41773 7.780254,-8.99575 9.479373,-24.52242 11.825065,-34.14789 5.322612,-21.841152 12.524451,-32.829857 24.470142,-32.829855 12.25679,2e-6 20.07127,11.469802 24.21688,32.809655 1.82929,9.41643 3.43686,25.26924 10.5816,34.16809 z"
             sodipodi:nodetypes="scsssss" />
          <path
             id="rect1224"
             style="fill:#b50060;fill-opacity:1;stroke:#7c0e41;stroke-width:2.119;stroke-linecap:round;stroke-linejoin:round;stroke-miterlimit:4;stroke-dasharray:none;stroke-opacity:1"
             d="m 144.43244,134.32967 c 4.85861,9.54152 8.27147,15.46721 5.79405,14.96709 -15.89127,-21.50402 -75.858891,-13.72569 -84.394657,2.01628 -1.537636,-3.91189 7.382078,-15.21577 7.8021,-17.01717 6.803319,-9.075 59.781257,-11.79201 70.798507,0.0338 z"
             sodipodi:nodetypes="ccccc" />
          <path
             id="path1222"
             style="fill:#a32672;fill-opacity:1;stroke:#7c0e41;stroke-width:3.4806;stroke-linecap:round;stroke-linejoin:round;stroke-miterlimit:4;stroke-dasharray:none;stroke-opacity:1"
             d="m 150.30002,153.56313 a 42.295059,18.085684 0 0 1 -42.29506,18.08568 42.295059,18.085684 0 0 1 -42.29506,-18.08568 42.295059,18.085684 0 0 1 42.29506,-18.08569 42.295059,18.085684 0 0 1 42.29506,18.08569 z" />
          <path
             id="path1230"
             style="fill:#e79bca;fill-opacity:1;stroke:#7c0e41;stroke-width:1.584;stroke-linecap:round;stroke-linejoin:round;stroke-miterlimit:4;stroke-dasharray:none;stroke-opacity:1"
             d="m 125.94277,164.26384 a 17.960512,17.960512 0 0 1 -17.96051,17.96051 17.960512,17.960512 0 0 1 -17.960511,-17.96051 17.960512,17.960512 0 0 1 17.960511,-17.96051 17.960512,17.960512 0 0 1 17.96051,17.96051 z" />
          <path
             id="path1232"
             style="fill:#f4d0e5;fill-opacity:1;stroke:none;stroke-width:1.419;stroke-linecap:round;stroke-linejoin:round;stroke-miterlimit:4;stroke-dasharray:none;stroke-opacity:1"
             d="m 118.61421,159.39955 a 7.1093693,7.1093693 0 0 1 -7.10937,7.10937 7.1093693,7.1093693 0 0 1 -7.10937,-7.10937 7.1093693,7.1093693 0 0 1 7.10937,-7.10937 7.1093693,7.1093693 0 0 1 7.10937,7.10937 z" />
          <path
             id="rect1234"
             style="fill:#d4499b;fill-opacity:1;stroke:none;stroke-width:1.74057;stroke-linecap:round;stroke-linejoin:round;stroke-miterlimit:4;stroke-dasharray:none;stroke-opacity:1"
             d="m 120.61442,130.93298 c 10.58096,-0.44311 13.31251,0.068 21.17217,5.51337 1.7467,2.92081 -5.18517,-1.44884 -9.99003,-3.04262 -5.16198,-1.71223 -14.99145,-0.0926 -11.18217,-2.47073 z"
             sodipodi:nodetypes="ccsc" />
          <path
             id="rect1234-3"
             style="fill:#d4499b;fill-opacity:1;stroke:none;stroke-width:3.07746;stroke-linecap:round;stroke-linejoin:round;stroke-miterlimit:4;stroke-dasharray:none;stroke-opacity:1"
             d="M 132.67152,124.51361 C 122.93081,60.478284 103.96579,76.669009 107.86539,73.671699 125.30197,60.269605 132.53286,111.16123 132.67152,124.51361 Z"
             sodipodi:nodetypes="csc" />
        </g>
        <circle
           style="fill:#1f1b60;fill-opacity:1;stroke:#1f1b60;stroke-width:1.2;stroke-linecap:round;stroke-linejoin:round;stroke-miterlimit:4;stroke-dasharray:none;stroke-opacity:1;filter:url(#filter1616)"
           id="path1252"
           cx="63.805416"
           cy="84.101784"
           r="16.766066" />
        <text
           xml:space="preserve"
           style="font-style:normal;font-weight:normal;font-size:38.1977px;line-height:1.25;font-family:sans-serif;letter-spacing:0px;word-spacing:0px;fill:#f7deed;fill-opacity:1;stroke:#1f1b60;stroke-width:0.398;stroke-linecap:round;stroke-linejoin:round;stroke-miterlimit:4;stroke-dasharray:0.0995, 0.0995;stroke-dashoffset:0;stroke-opacity:1;filter:url(#filter1716)"
           x="44.274693"
           y="116.26308"
           id="text1622"
           transform="matrix(1.2794781,0,0,0.85401009,-2.8805215,-3.7889561)"><tspan
             sodipodi:role="line"
             id="tspan1620"
             x="44.274693"
             y="116.26308"
             style="font-size:38.1977px;fill:#f7deed;fill-opacity:1;stroke:#1f1b60;stroke-width:0.398;stroke-linecap:round;stroke-linejoin:round;stroke-miterlimit:4;stroke-dasharray:0.0995, 0.0995;stroke-dashoffset:0;stroke-opacity:1">!</tspan></text>
      </g>
    </g>
  </g>
</svg>
