<?xml version="1.0" encoding="UTF-8" standalone="no"?>
<svg
   xmlns:dc="http://purl.org/dc/elements/1.1/"
   xmlns:cc="http://creativecommons.org/ns#"
   xmlns:rdf="http://www.w3.org/1999/02/22-rdf-syntax-ns#"
   xmlns:svg="http://www.w3.org/2000/svg"
   xmlns="http://www.w3.org/2000/svg"
   xmlns:sodipodi="http://sodipodi.sourceforge.net/DTD/sodipodi-0.dtd"
   xmlns:inkscape="http://www.inkscape.org/namespaces/inkscape"
   width="210mm"
   height="297mm"
   viewBox="0 0 210 297"
   version="1.1"
   id="svg946"
   inkscape:version="1.0.2 (e86c870879, 2021-01-15, custom)"
   sodipodi:docname="badminton.svg">
  <defs
     id="defs940" />
  <sodipodi:namedview
     id="base"
     pagecolor="#ffffff"
     bordercolor="#666666"
     borderopacity="1.0"
     inkscape:pageopacity="0.0"
     inkscape:pageshadow="2"
     inkscape:zoom="0.49497475"
     inkscape:cx="278.40553"
     inkscape:cy="538.99434"
     inkscape:document-units="mm"
     inkscape:current-layer="layer1"
     inkscape:document-rotation="0"
     showgrid="false"
     inkscape:window-width="1350"
     inkscape:window-height="728"
     inkscape:window-x="0"
     inkscape:window-y="0"
     inkscape:window-maximized="0" />
  <metadata
     id="metadata943">
    <rdf:RDF>
      <cc:Work
         rdf:about="">
        <dc:format>image/svg+xml</dc:format>
        <dc:type
           rdf:resource="http://purl.org/dc/dcmitype/StillImage" />
        <dc:title></dc:title>
      </cc:Work>
    </rdf:RDF>
  </metadata>
  <g
     inkscape:label="Warstwa 1"
     inkscape:groupmode="layer"
     id="layer1">
    <g
       id="g1700"
       style="opacity:0.65;fill:#037be9;fill-opacity:1"
       transform="matrix(1.535065,0,0,1.535065,-58.23563,-62.47519)">
      <rect
         style="opacity:1;fill:#037be9;fill-opacity:1;stroke:#037be9;stroke-width:8.40815;stroke-linecap:round;stroke-linejoin:round;stroke-miterlimit:4;stroke-dasharray:none;stroke-dashoffset:0;stroke-opacity:1"
         id="rect2233-8"
         width="1.761891"
         height="62.401676"
         x="-77.643257"
         y="146.99562"
         ry="0.55715853"
         transform="matrix(-0.97577664,0.21876915,0.34005416,0.94040585,0,0)" />
      <path
         id="rect2233-8-1"
         style="opacity:1;fill:#037be9;fill-opacity:1;stroke:#037be9;stroke-width:8.62983;stroke-linecap:round;stroke-linejoin:round;stroke-miterlimit:4;stroke-dasharray:none;stroke-dashoffset:0;stroke-opacity:1"
         d="M 146.33315,177.83447 128.8343,199.0932 c -0.21684,0.26343 -0.18923,0.66351 0.0621,0.89716 l 0.32451,0.30179 c 0.25137,0.23366 0.62862,0.20993 0.84546,-0.0535 l 16.94253,-20.58289 z" />
      <path
         id="rect2233-8-1-7"
         style="opacity:1;fill:#037be9;fill-opacity:1;stroke:#037be9;stroke-width:9.68781;stroke-linecap:round;stroke-linejoin:round;stroke-miterlimit:4;stroke-dasharray:none;stroke-dashoffset:0;stroke-opacity:1"
         d="m 130.81007,159.44925 -25.09284,18.04934 c -0.31094,0.22365 -0.3958,0.66578 -0.1901,0.9915 l 0.26557,0.42066 c 0.20574,0.32574 0.62198,0.40826 0.93291,0.1846 l 24.2951,-17.47552 z" />
      <path
         id="rect1630"
         style="opacity:1;fill:#037be9;fill-opacity:1;stroke:none;stroke-width:2.72791;stroke-linecap:round;stroke-linejoin:round"
         transform="matrix(0.94065895,-0.33935342,0.19081676,0.98162567,0,0)"
         d="m 109.76477,165.76971 c 0.1,7.60583 1.81678,20.84563 1.81678,29.20907 0,0.37317 -0.30042,0.6736 -0.6736,0.6736 H 92.194376 c -0.373175,0 -0.648012,-0.29736 -0.673601,-0.6736 l -2.168513,-31.88492 c 9.129632,2.05893 13.100238,2.67585 20.412508,2.67585 z"
         sodipodi:nodetypes="ccssscc" />
      <path
         id="rect2233-8-1-5"
         style="opacity:1;fill:#037be9;fill-opacity:1;stroke:#037be9;stroke-width:7.23113;stroke-linecap:round;stroke-linejoin:round;stroke-miterlimit:4;stroke-dasharray:none;stroke-dashoffset:0;stroke-opacity:1"
         d="M 148.48422,111.2374 136.62758,92.395 c -0.14692,-0.233489 -0.50137,-0.347435 -0.7949,-0.255392 l -0.37908,0.118806 c -0.29355,0.09207 -0.41191,0.354289 -0.26498,0.587777 l 11.4797,18.243369 z" />
      <path
         id="path1642"
         style="opacity:1;fill:#037be9;fill-opacity:1;stroke:none;stroke-width:3.165;stroke-linecap:round;stroke-linejoin:round"
         d="m 151.56844,112.16443 c 0,3.49657 -17.28386,17.76488 -35.34078,17.76488 -18.056907,0 -35.088112,-13.03864 -30.332579,-16.63095 1.764479,-1.33288 2.04505,-5.31683 5.727324,-3.34774 12.066145,6.45234 21.098285,9.53211 28.290525,8.16693 5.96261,-1.13177 11.53807,-1.69837 20.33479,-9.55934 2.95309,-2.63896 11.32072,2.10004 11.32072,3.60622 z"
         sodipodi:nodetypes="sssssss" />
      <circle
         style="opacity:1;fill:#037be9;fill-opacity:1;stroke:none;stroke-width:3.165;stroke-linecap:round;stroke-linejoin:round"
         id="path1645"
         cx="118.92075"
         cy="104.08518"
         r="10.15811" />
      <path
         id="rect1647"
         style="opacity:1;fill:#037be9;fill-opacity:1;stroke:none;stroke-width:11.9622;stroke-linecap:round;stroke-linejoin:round"
         d="m 305.74023,373.5625 c -0.0307,-0.008 -0.055,-0.004 -0.0723,0.01 l -17.05078,13.57031 c 24.06265,25.17082 23.4407,26.12316 37.09765,41.38281 L 335,417.18945 c 0.87974,-1.07406 -27.32552,-43.15018 -29.25977,-43.62695 z m -5.95703,7.4668 a 6.9642858,4.1071431 42.169767 0 1 5.65235,2.5332 6.9642858,4.1071431 42.169767 0 1 2.40429,7.7207 6.9642858,4.1071431 42.169767 0 1 -7.91796,-1.63281 6.9642858,4.1071431 42.169767 0 1 -2.4043,-7.71875 6.9642858,4.1071431 42.169767 0 1 2.26562,-0.90234 z"
         transform="scale(0.26458333)" />
      <path
         id="path1654"
         style="opacity:1;fill:#037be9;fill-opacity:1;stroke:none;stroke-width:3.165;stroke-linecap:round;stroke-linejoin:round"
         d="m 64.119674,74.741763 c -0.12733,-0.0011 -0.254211,1.3e-4 -0.381373,0.0036 -8.138204,0.223226 -9.462105,10.295196 -6.188768,15.625402 4.425582,7.206475 8.922287,11.773445 15.367537,12.292785 7.913804,0.63767 9.420924,-4.613153 8.587589,-10.870133 C 80.443262,83.824062 72.141497,74.808621 64.119674,74.741763 Z m 0.686263,2.70061 c 6.516421,-0.181681 13.362633,7.28639 14.226006,13.875639 0.667266,5.09257 -0.539332,9.365998 -6.876066,8.847008 C 66.995039,99.74232 63.394335,96.025304 59.850683,90.159944 57.22966,85.821674 58.289517,77.62406 64.805937,77.442373 Z" />
      <ellipse
         style="opacity:1;fill:#037be9;fill-opacity:1;stroke:none;stroke-width:3.31475;stroke-linecap:round;stroke-linejoin:round"
         id="path1678"
         cx="90.336296"
         cy="81.501106"
         rx="3.0238094"
         ry="3.2600448" />
      <path
         id="rect1680"
         style="opacity:1;fill:#037be9;fill-opacity:1;stroke:none;stroke-width:4.42124;stroke-linecap:round;stroke-linejoin:round"
         d="m 98.219013,68.809056 0.302652,2.846447 3.217715,1.281241 -0.046,3.571394 3.80601,1.24038 -12.834445,5.881769 -3.406159,-5.348697 z"
         sodipodi:nodetypes="cccccccc" />
    </g>
  </g>
</svg>
