<?xml version="1.0" encoding="UTF-8" standalone="no"?>
<svg
   xmlns:dc="http://purl.org/dc/elements/1.1/"
   xmlns:cc="http://creativecommons.org/ns#"
   xmlns:rdf="http://www.w3.org/1999/02/22-rdf-syntax-ns#"
   xmlns:svg="http://www.w3.org/2000/svg"
   xmlns="http://www.w3.org/2000/svg"
   xmlns:sodipodi="http://sodipodi.sourceforge.net/DTD/sodipodi-0.dtd"
   xmlns:inkscape="http://www.inkscape.org/namespaces/inkscape"
   width="210mm"
   height="297mm"
   viewBox="0 0 210 297"
   version="1.1"
   id="svg1443"
   inkscape:version="1.0.2 (e86c870879, 2021-01-15, custom)"
   sodipodi:docname="rolki.svg">
  <defs
     id="defs1437" />
  <sodipodi:namedview
     id="base"
     pagecolor="#ffffff"
     bordercolor="#666666"
     borderopacity="1.0"
     inkscape:pageopacity="0.0"
     inkscape:pageshadow="2"
     inkscape:zoom="0.49497475"
     inkscape:cx="297.37277"
     inkscape:cy="517.25097"
     inkscape:document-units="mm"
     inkscape:current-layer="layer1"
     inkscape:document-rotation="0"
     showgrid="false"
     inkscape:window-width="1366"
     inkscape:window-height="705"
     inkscape:window-x="-8"
     inkscape:window-y="-8"
     inkscape:window-maximized="1" />
  <metadata
     id="metadata1440">
    <rdf:RDF>
      <cc:Work
         rdf:about="">
        <dc:format>image/svg+xml</dc:format>
        <dc:type
           rdf:resource="http://purl.org/dc/dcmitype/StillImage" />
        <dc:title></dc:title>
      </cc:Work>
    </rdf:RDF>
  </metadata>
  <g
     inkscape:label="Warstwa 1"
     inkscape:groupmode="layer"
     id="layer1">
    <g
       id="g2202"
       style="opacity:0.65;fill:#037be9;fill-opacity:1"
       transform="matrix(1.1216808,0,0,1.1216808,-5.3146824,-9.6220032)">
      <path
         id="path1459"
         style="opacity:1;fill:#037be9;fill-opacity:1;stroke-width:1.00157;stroke-linecap:round;stroke-linejoin:round"
         d="M 393.75,672.5 A 70.535716,70.535716 0 0 0 323.21484,743.03516 70.535716,70.535716 0 0 0 393.75,813.57227 70.535716,70.535716 0 0 0 464.28516,743.03516 70.535716,70.535716 0 0 0 393.75,672.5 Z m 0.71484,36.25 a 34.642859,34.642859 0 0 1 34.64258,34.64258 34.642859,34.642859 0 0 1 -34.64258,34.64258 34.642859,34.642859 0 0 1 -34.64257,-34.64258 34.642859,34.642859 0 0 1 34.64257,-34.64258 z"
         transform="scale(0.26458333)" />
      <path
         id="path1459-6"
         style="opacity:1;fill:#037be9;fill-opacity:1;stroke-width:0.264999;stroke-linecap:round;stroke-linejoin:round"
         d="m 145.61533,177.88494 a 18.662575,18.662575 0 0 0 -18.66243,18.66243 18.662575,18.662575 0 0 0 18.66243,18.66294 18.662575,18.662575 0 0 0 18.66243,-18.66294 18.662575,18.662575 0 0 0 -18.66243,-18.66243 z m 0.18913,9.59114 a 9.165923,9.165923 0 0 1 9.16585,9.16585 9.165923,9.165923 0 0 1 -9.16585,9.16585 9.165923,9.165923 0 0 1 -9.16584,-9.16585 9.165923,9.165923 0 0 1 9.16584,-9.16585 z" />
      <path
         id="path1459-8"
         style="opacity:1;fill:#037be9;fill-opacity:1;stroke-width:0.264999;stroke-linecap:round;stroke-linejoin:round"
         d="m 62.55506,177.88494 a 18.662575,18.662575 0 0 0 -18.66243,18.66243 18.662575,18.662575 0 0 0 18.66243,18.66294 18.662575,18.662575 0 0 0 18.66243,-18.66294 18.662575,18.662575 0 0 0 -18.66243,-18.66243 z m 0.18913,9.59114 a 9.165923,9.165923 0 0 1 9.16585,9.16585 9.165923,9.165923 0 0 1 -9.16585,9.16585 9.165923,9.165923 0 0 1 -9.16584,-9.16585 9.165923,9.165923 0 0 1 9.16584,-9.16585 z" />
      <path
         id="path1511"
         style="opacity:1;fill:#037be9;fill-opacity:1;stroke-width:0.264999;stroke-linecap:round;stroke-linejoin:round"
         d="m 121.06637,130.75815 c 7.7384,0.92209 -8.40478,15.57108 -11.96059,19.05703 -4.51909,4.43032 -10.640151,11.36152 -14.536721,7.53902 -3.478523,-3.4124 3.066925,-9.8421 6.479941,-13.10389 4.86098,-4.6456 13.26313,-14.29699 20.01737,-13.49216 z"
         sodipodi:nodetypes="ssass" />
      <path
         id="path1511-7"
         style="opacity:1;fill:#037be9;fill-opacity:1;stroke-width:0.264999;stroke-linecap:round;stroke-linejoin:round"
         d="m 142.06842,130.74689 c 7.7384,0.92209 -8.40478,15.57108 -11.96059,19.05703 -4.51909,4.43032 -10.64015,11.36152 -14.53672,7.53902 -3.47853,-3.4124 3.06692,-9.8421 6.47994,-13.10389 4.86098,-4.6456 13.26313,-14.29699 20.01737,-13.49216 z"
         sodipodi:nodetypes="ssass" />
      <rect
         style="opacity:1;fill:#037be9;fill-opacity:1;stroke-width:0.264999;stroke-linecap:round;stroke-linejoin:round"
         id="rect1554"
         width="50.837795"
         height="9.6383924"
         x="48.191963"
         y="104.22693" />
      <path
         id="rect1556"
         style="opacity:1;fill:#037be9;fill-opacity:1;stroke-width:0.264999;stroke-linecap:round;stroke-linejoin:round"
         d="m 45.357146,80.319943 c 2.77089,-1.628927 15.407664,-1.215599 29.008804,-1.148217 13.034962,0.06458 24.890156,-0.178832 27.21515,1.242711 2.56632,1.569093 1.32292,8.693453 1.32292,8.693453 H 44.034229 c 0,0 -1.392437,-7.191668 1.322917,-8.787947 z"
         sodipodi:nodetypes="sssccs" />
      <path
         id="rect1556-2"
         style="opacity:1;fill:#037be9;fill-opacity:1;stroke-width:0.255248;stroke-linecap:round;stroke-linejoin:round"
         d="m 94.634441,137.25616 c -1.632681,-2.56867 -1.236466,-14.29306 -1.187507,-26.91171 0.04695,-12.093372 -0.21254,-23.091814 1.20585,-25.250628 1.565613,-2.382895 8.691646,-1.238273 8.691646,-1.238273 l 0.0797,54.616911 c 0,0 -7.189773,1.30088 -8.789719,-1.2163 z"
         sodipodi:nodetypes="sssccs" />
      <path
         id="rect1556-7"
         style="opacity:1;fill:#037be9;fill-opacity:1;stroke-width:0.22278;stroke-linecap:round;stroke-linejoin:round"
         d="m 100.48287,129.74819 c 1.95831,-1.62893 10.88932,-1.2156 20.50187,-1.14822 9.2124,0.0646 17.59103,-0.17883 19.23421,1.24271 1.81374,1.56909 0.93496,8.69345 0.93496,8.69345 H 99.547898 c 0,0 -0.9841,-7.19167 0.934972,-8.78794 z"
         sodipodi:nodetypes="sssccs" />
      <path
         id="rect1556-0"
         style="opacity:1;fill:#037be9;fill-opacity:1;stroke-width:0.354082;stroke-linecap:round;stroke-linejoin:round"
         d="m 45.238786,185.51935 c -1.642515,-4.93261 -1.291234,-27.49687 -1.290633,-51.77976 6.01e-4,-23.27208 -0.301033,-44.435197 1.109075,-48.598515 1.556481,-4.595442 8.68686,-2.438031 8.68686,-2.438031 l 0.289037,105.101106 c 0,0 -7.184747,2.54898 -8.794339,-2.2848 z"
         sodipodi:nodetypes="sssccs" />
      <path
         id="rect1556-75"
         style="opacity:1;fill:#037be9;fill-opacity:1;stroke-width:0.335474;stroke-linecap:round;stroke-linejoin:round"
         d="m 49.950944,178.73549 c 4.440673,-1.62892 24.69257,-1.2156 46.489976,-1.14821 20.89004,0.0646 39.88938,-0.17884 43.61545,1.24271 4.11282,1.56909 2.12013,8.69345 2.12013,8.69345 H 47.830816 c 0,0 -2.231542,-7.19167 2.120128,-8.78795 z"
         sodipodi:nodetypes="sssccs" />
      <path
         id="path1459-6-7"
         style="opacity:1;fill:#037be9;fill-opacity:1;stroke-width:0.358862;stroke-linecap:round;stroke-linejoin:round"
         d="m 140.09557,129.65865 1.05834,8.87748 c 12.48304,7.09001 12.44859,13.277 13.40383,18.43454 1.61266,9.49524 -8.94241,20.91427 -18.8089,21.23422 l 4.34673,4.71045 c 1.10442,0.15842 2.22333,0.24184 3.35122,0.24185 13.69948,-1.1e-4 21.02534,-10.77261 21.02507,-24.99382 -1e-4,-13.61206 -11.38737,-27.35278 -24.37629,-28.50472 z"
         sodipodi:nodetypes="cccccccc" />
    </g>
  </g>
</svg>
