<?xml version="1.0" encoding="UTF-8" standalone="no"?>
<svg
   xmlns:dc="http://purl.org/dc/elements/1.1/"
   xmlns:cc="http://creativecommons.org/ns#"
   xmlns:rdf="http://www.w3.org/1999/02/22-rdf-syntax-ns#"
   xmlns:svg="http://www.w3.org/2000/svg"
   xmlns="http://www.w3.org/2000/svg"
   xmlns:sodipodi="http://sodipodi.sourceforge.net/DTD/sodipodi-0.dtd"
   xmlns:inkscape="http://www.inkscape.org/namespaces/inkscape"
   width="210mm"
   height="297mm"
   viewBox="0 0 210 297"
   version="1.1"
   id="svg8"
   inkscape:version="1.0.2 (e86c870879, 2021-01-15, custom)"
   sodipodi:docname="tenis.svg">
  <defs
     id="defs2" />
  <sodipodi:namedview
     id="base"
     pagecolor="#ffffff"
     bordercolor="#666666"
     borderopacity="1.0"
     inkscape:pageopacity="0.0"
     inkscape:pageshadow="2"
     inkscape:zoom="0.35"
     inkscape:cx="342.44803"
     inkscape:cy="621.91161"
     inkscape:document-units="mm"
     inkscape:current-layer="layer1"
     inkscape:document-rotation="0"
     showgrid="false"
     showguides="false"
     inkscape:window-width="1366"
     inkscape:window-height="705"
     inkscape:window-x="-8"
     inkscape:window-y="-8"
     inkscape:window-maximized="1" />
  <metadata
     id="metadata5">
    <rdf:RDF>
      <cc:Work
         rdf:about="">
        <dc:format>image/svg+xml</dc:format>
        <dc:type
           rdf:resource="http://purl.org/dc/dcmitype/StillImage" />
        <dc:title></dc:title>
      </cc:Work>
    </rdf:RDF>
  </metadata>
  <g
     inkscape:label="Warstwa 1"
     inkscape:groupmode="layer"
     id="layer1">
    <g
       id="g1407"
       style="opacity:0.65;fill:#037be9;fill-opacity:1"
       transform="matrix(1.3379055,0,0,1.3379055,-30.669963,-41.592285)">
      <path
         id="path24"
         style="opacity:1;fill:#037be9;fill-opacity:1;stroke:none;stroke-width:3.165;stroke-linecap:round;stroke-linejoin:round;stroke-opacity:0.74902"
         d="m 144.25417,180.73451 c 12.62366,14.84195 21.66805,21.95013 14.37592,28.41336 -8.14712,7.22102 -14.17118,-3.00863 -26.79484,-17.85058 -12.62366,-14.84195 -21.63625,-20.3121 -13.57411,-27.74518 7.03095,-6.48236 13.36937,2.34045 25.99303,17.1824 z"
         sodipodi:nodetypes="sssss" />
      <path
         id="rect1160"
         style="opacity:1;fill:#037be9;fill-opacity:1;stroke:none;stroke-width:0.264999;stroke-linecap:round;stroke-linejoin:round;stroke-miterlimit:4;stroke-dasharray:none;stroke-opacity:1"
         d="m 99.357445,160.09445 c 0,0 5.342995,2.09046 7.869225,3.436 2.80211,1.49248 8.03331,5.11663 8.03331,5.11663 l 1.20271,4.81085 c 0,0 -5.29748,-4.5815 -11.47823,-7.65729 -9.060095,-4.50868 -15.98371,-5.17165 -15.98371,-5.17165 z"
         sodipodi:nodetypes="caccscc" />
      <path
         id="rect1160-6"
         style="opacity:1;fill:#037be9;fill-opacity:1;stroke:none;stroke-width:0.264999;stroke-linecap:round;stroke-linejoin:round;stroke-miterlimit:4;stroke-dasharray:none;stroke-opacity:1"
         d="m 118.45847,145.24476 c 0,0 1.01185,5.64746 1.8406,8.38707 0.91925,3.03881 3.45726,8.87476 3.45726,8.87476 l 4.48525,2.11503 c 0,0 -3.46422,-6.08708 -5.27973,-12.74787 -2.66131,-9.76375 -1.96562,-16.68416 -1.96562,-16.68416 z"
         sodipodi:nodetypes="caccscc" />
      <path
         id="path1183-2-3"
         style="opacity:1;fill:#037be9;fill-opacity:1;stroke:none;stroke-width:0.264999;stroke-linecap:round;stroke-linejoin:round;stroke-miterlimit:4;stroke-dasharray:none;stroke-opacity:1"
         d="M 111.75025,91.741367 A 15.0718,15.0718 0 0 0 125.51686,106.08727 15.0718,15.0718 0 0 0 111.75025,91.741367 Z" />
      <path
         id="path1183"
         style="opacity:1;fill:#037be9;fill-opacity:1;stroke:none;stroke-width:0.264999;stroke-linecap:round;stroke-linejoin:round;stroke-miterlimit:4;stroke-dasharray:none;stroke-opacity:1"
         d="m 110.18647,91.717895 a 15.0718,15.0718 0 0 0 -14.683871,14.132455 15.0718,15.0718 0 0 1 0.53795,-0.01 15.0718,15.0718 0 0 1 15.071451,15.07194 15.0718,15.0718 0 0 1 -0.0289,0.93483 15.0718,15.0718 0 0 0 14.51539,-14.30972 15.0718,15.0718 0 0 1 -0.35967,0.004 15.0718,15.0718 0 0 1 -15.07143,-15.071925 15.0718,15.0718 0 0 1 0.0191,-0.75189 z" />
      <path
         id="path1183-2-3-9"
         style="opacity:1;fill:#037be9;fill-opacity:1;stroke:none;stroke-width:0.264999;stroke-linecap:round;stroke-linejoin:round;stroke-miterlimit:4;stroke-dasharray:none;stroke-opacity:1"
         d="m 95.199819,107.50122 a 15.0718,15.0718 0 0 0 13.766601,14.3459 15.0718,15.0718 0 0 0 -13.766601,-14.3459 z" />
      <path
         id="path1321"
         style="opacity:1;fill:#037be9;fill-opacity:1;stroke:none;stroke-width:0.211749;stroke-linecap:round;stroke-linejoin:round;stroke-miterlimit:4;stroke-dasharray:none;stroke-opacity:1"
         d="m 76.326741,81.701481 c -7.658269,-0.047 -15.095307,2.4852 -21.360968,8.03103 -10.41173,9.21558 -13.937107,35.254999 1.598869,53.200369 20.178485,23.30787 43.575308,20.81329 54.364128,12.04216 8.98368,-7.30359 12.47598,-19.55382 10.45207,-32.07918 -0.10913,0.04 -0.22041,0.0772 -0.33073,0.11576 0.005,0.031 0.0106,0.062 0.0155,0.093 -1.1475,0.43029 -2.36496,0.77512 -3.62923,1.04232 -0.0354,0.0483 -0.0723,0.0934 -0.10801,0.14107 1.25809,10.54179 -1.91392,20.68153 -9.49761,26.84694 -9.570259,7.78046 -30.324498,9.99333 -48.223928,-10.68203 -13.781273,-15.91853 -10.654297,-39.01671 -1.418516,-47.191419 5.557988,-4.91947 12.154887,-7.16578 18.948196,-7.12412 6.659674,0.0409 13.506156,2.28681 19.749182,6.36241 0.12368,0.0253 0.247264,0.0509 0.372071,0.077 1.015066,-0.70874 2.096606,-1.42458 3.253545,-2.14716 0.009,0.007 0.0179,0.0136 0.0269,0.0202 0.0606,-0.0384 0.11826,-0.0763 0.17931,-0.11472 -7.590724,-5.52125 -16.11935,-8.58285 -24.390755,-8.63358 z" />
    </g>
  </g>
</svg>
